<svg width="100" height="100" viewBox="0 0 100 100" fill="none" xmlns="http://www.w3.org/2000/svg">
<path d="M92.2 53.125C91.7736 52.6262 91.2448 52.2252 90.6494 51.9494C90.054 51.6735 89.4062 51.5293 88.75 51.5266H88.5687C87.435 51.5405 86.3438 51.9607 85.4934 52.7107C84.643 53.4607 84.0899 54.4909 83.9344 55.614C82.9317 62.1533 80.0338 68.2551 75.5993 73.1645C71.1648 78.0738 65.3883 81.5754 58.9844 83.2359C52.142 85.0628 44.9029 84.7381 38.2516 82.3059C31.6002 79.8737 25.8593 75.452 21.8094 69.6422C21.6463 69.4077 21.5506 69.1331 21.5327 68.8481C21.5148 68.5631 21.5753 68.2786 21.7077 68.0256C21.8401 67.7726 22.0393 67.5607 22.2836 67.4129C22.528 67.2652 22.8082 67.1872 23.0938 67.1875H31.25C32.0788 67.1875 32.8737 66.8583 33.4597 66.2722C34.0458 65.6861 34.375 64.8913 34.375 64.0625C34.375 63.2337 34.0458 62.4388 33.4597 61.8528C32.8737 61.2667 32.0788 60.9375 31.25 60.9375H6.25V85.9375C6.25 86.7663 6.57924 87.5611 7.16529 88.1472C7.75134 88.7333 8.5462 89.0625 9.375 89.0625C10.2038 89.0625 10.9987 88.7333 11.5847 88.1472C12.1708 87.5611 12.5 86.7663 12.5 85.9375V77.5937C12.5004 77.2675 12.6029 76.9496 12.7931 76.6845C12.9834 76.4195 13.2518 76.2207 13.5607 76.1159C13.8697 76.0111 14.2037 76.0057 14.5159 76.1004C14.8281 76.195 15.1028 76.385 15.3016 76.6437C20.5149 83.4351 27.6063 88.5476 35.6971 91.3478C43.7879 94.1479 52.5224 94.5125 60.8185 92.3965C69.1145 90.2805 76.6073 85.7768 82.3685 79.4436C88.1298 73.1104 91.9061 65.2259 93.2297 56.7672C93.3308 56.1217 93.2911 55.4621 93.1133 54.8334C92.9356 54.2048 92.624 53.622 92.2 53.125Z" fill="white"/>
<path d="M68.75 39.0625H93.75V14.0625C93.75 13.2337 93.4207 12.4388 92.8347 11.8528C92.2486 11.2667 91.4538 10.9375 90.625 10.9375C89.7962 10.9375 89.0013 11.2667 88.4153 11.8528C87.8292 12.4388 87.5 13.2337 87.5 14.0625V22.4062C87.4996 22.7325 87.3971 23.0504 87.2069 23.3154C87.0166 23.5804 86.7482 23.7793 86.4393 23.8841C86.1303 23.9888 85.7963 23.9943 85.4841 23.8996C85.1719 23.8049 84.8972 23.6149 84.6984 23.3562C79.4967 16.5791 72.4245 11.4733 64.3547 8.66879C56.2848 5.8643 47.5704 5.48389 39.2869 7.57451C31.0034 9.66512 23.5132 14.1353 17.7407 20.4333C11.9682 26.7314 8.1659 34.5817 6.80312 43.0156C6.69843 43.6857 6.74011 44.3706 6.92529 45.023C7.11048 45.6755 7.43478 46.2801 7.8759 46.7953C8.31701 47.3105 8.86448 47.7241 9.48064 48.0076C10.0968 48.291 10.7671 48.4377 11.4453 48.4375C12.5729 48.426 13.6593 48.0124 14.5089 47.271C15.3585 46.5297 15.9156 45.5093 16.0797 44.3937C17.1927 37.6478 20.2928 31.3873 24.9834 26.4129C29.6739 21.4385 35.7417 17.9763 42.4107 16.4692C49.0796 14.9622 56.0465 15.4787 62.4203 17.9528C68.7941 20.4269 74.2849 24.746 78.1906 30.3578C78.3537 30.5922 78.4494 30.8669 78.4673 31.1519C78.4852 31.4369 78.4247 31.7213 78.2923 31.9744C78.1599 32.2274 77.9607 32.4393 77.7164 32.587C77.472 32.7348 77.1918 32.8128 76.9062 32.8125H68.75C67.9212 32.8125 67.1263 33.1417 66.5403 33.7278C65.9542 34.3138 65.625 35.1087 65.625 35.9375C65.625 36.7663 65.9542 37.5611 66.5403 38.1472C67.1263 38.7332 67.9212 39.0625 68.75 39.0625Z" fill="white"/>
</svg>
